<svg xmlns="http://www.w3.org/2000/svg" width="960" height="208" overflow="hidden"><path fill="red" d="M0 0h960v208H0z"/><g aria-label="It’sYourMoney!" font-style="italic" font-weight="400" font-size="128" font-family="'Brush Script MT','Brush Script MT_MSFontService',sans-serif" fill="#fff"><path d="M131.893 147.813L128.018 145q-.875-.75-.875-1.563 0-.812 2.937-5.625 2.125-3.437 5.688-9.437 3.625-6 5.812-9.875 2.188-3.875 5.313-10.125 3.187-6.313 5.812-12.313 6.063-13.812 6.063-17.624 0-4.5-3.5-4.5-2.625 0-7.5 2.687-4.813 2.625-10 6.938-5.188 4.312-8.625 9-3.438 4.687-3.438 8.25 0 .562.313.874.312.25 1.125.25 1.5 0 4.875-1.75 1.5-.75 1.5.25t-4.75 5.188q-4.75 4.125-7 4.125-1.938 0-5.438-3.313-3.437-3.374-3.437-6.124 0-1.063 1.937-5.063 1.938-4 5.313-9 3.375-5.063 7.125-8.75 4.312-4.313 9.812-7.688 5.563-3.374 10.625-5.25 5.125-1.874 8.25-1.874 4.5 0 7 3.437 2.563 3.375 2.563 9.5 0 8.125-6.375 23.5t-19.625 36q.187.625.437 1.375.25.688.25 1.313 0 .125-.188.5-.187.312-.437.687-.25.375-.313.5l-4.562 7.5q-.75 1.313-1.563 1.313-.75 0-1.25-.5zM184.83 93.875h2.688q3.313-5.938 6-8.375 2.688-2.5 6.125-2.5 3.438 0 3.438 1.563 0 .75-2.688 4.062-2.687 3.313-4.062 5.563 2.125.25 3.75.437 1.687.188 2.625.313-3.563 6.624-8.938 13.562-1.75-.125-2.937-.188-1.188-.124-2.438-.187-1.187-.125-2.937-.25-3.375 5.438-5.688 9.75-2.25 4.25-3.5 7.813-1.187 3.562-1.187 6.75 0 4.312 3.437 4.312 2.375 0 6.188-2.5 3.875-2.563 10.312-7.813v4.188q-16.875 18.313-24.937 18.313-2.813 0-4.563-2.188-1.687-2.188-1.687-5.625 0-2.313.937-5.5 1-3.188 3.5-9.625-.875.75-1.687 1.5-.75.688-1.438 1.313-.625.562-1.375 1.25-.75.625-1.5 1.312v-4.313q6.563-5.5 15.875-19.312-.937-.063-1.75-.063-.812-.062-1.937-.062-3.688 0-5.5.5-.75.188-1.438.438-.625.187-.875.187t-.25-.375q0-2.063 2.563-6.188 2.062-3.5 3.875-5.187 1.875-1.688 4.5-2.25 2.687-.625 7.5-.625zM223.925 76.25q0-.375-.5-.375-2.563 0-2.563-2.563 0-2.062 1.625-4.812 1.625-2.75 4-4.75t4.188-2q2.562 0 2.562 3.375t-2.437 7.25q-2.438 3.813-5.5 6.688-3 2.812-3.813 2.812-.375 0-.375-.375 0-.875 1.25-2.563 1.563-1.937 1.563-2.687zM227.862 128.063v-1.5q16.125-17 22.188-23.813 1.375-7.688 6.625-7.688 1.312 0 2.812.75l.375 1.188q-.25.75-.25 2.125 0 1.188.875 4.438.938 3.187 1.438 5.374.5 2.188.5 4.938 0 4.125-1.875 7.938-1.875 3.75-5.438 7.25-3.562 3.437-9.187 7.062 2.25.375 3.562.375 2.563 0 5.5-1.25 3-1.313 6.063-3.438 3.125-2.187 7.25-5.625v4.188q-8 7.813-14.313 11.875-6.312 4-10.875 4-5.875 0-10.875-5-2.937-3-3.687-5.75-.688-2.75-.688-7.438zm23.313-9.563l-1.125-9.125q-3.875 4.375-16.563 16.813 3.75.812 5.125 2.187 1.375 1.375 3.875 5.313 4.25-1.75 6.5-4.75 2.313-3.063 2.313-8.313 0-.625-.063-1.125 0-.5-.062-1zM294.625 102.5l1.125-7.313q.563-3.75 2-6.124 1.438-2.376 5.063-5.188 3.562-2.875 11.125-8.125 18.187-12.688 28.312-12.688 3.063 0 4.313 1.25 1.312 1.25 1.312 4.376 0 2.187-1.687 6-1.625 3.812-6.063 12.062-4.375 8.25-7.75 14.813-2.75 5.374-6.25 11.437-3.5 6-4.687 8.25-1.188 2.25-1.188 3.375 0 1.25.813 2.188.812.874 2 .874 1.625 0 3.625-1.75 2.062-1.75 8-7.562 2.875-2.875 6.125-6.813 3.312-3.937 8.187-10.124 4.875-6.188 9-11.5 2.563-3.313 4.625-5.938 2.063-2.625 3.5-4 1.5-1.438 2.375-1.438.75 0 2.438 1.876l1.5 1.937q1.687 2.375 1.687 3.438 0 1.25-4.687 9.187-4.625 7.875-7.875 13.688-3.25 5.75-8.438 16.687-5.125 10.875-9.875 24.188 12.688-9.563 17.375-12.75 4.688-3.25 6.813-3.25 1.437 0 1.437 1.187 0 1.313-1.375 3.438-1.375 2.062-3.687 4.625-2.313 2.5-7 7.25-4.625 4.812-10.125 10.375-3.375 3.437-6.563 8-3.187 4.562-4.937 7.062-1.75 2.5-3.188 2.875-2.125.625-3.875-.938-1.75-1.562-1.75-4.937 0-2.375 2.375-9.813 2.438-7.437 7.313-18.5 2.875-6.625 5.875-12.5 3-5.937 6.875-13 3.937-7.124 7.687-13.5 3.75-6.374 6.375-10.874-6.25 8.187-12.437 15.937-6.125 7.688-13.75 16.25-7.563 8.5-15.313 15.938-3.375 3.187-4.875 4.312-1.437 1.188-3.812 1.188-1.5 0-2.938-1.063-1.375-1-2.312-2.625-.938-1.688-.938-3.25 0-2.625.75-4.625.813-2 2.75-6 8.5-17.188 12.375-23.563 13.875-22.25 13.875-24.937 0-.875-.625-1.375-.625-.563-1.562-.563-1.75 0-4.188 1.563-2.437 1.5-6.125 4.5-3.687 3-9 7.188-5.25 4.187-11.062 8-2.313 1.5-5.188 3.562-2.937 2.063-3.375 2.063-.875 0-.875-.876 0-.812.375-3.437z"/><path d="M406.72 126.188v4.187q-4.126 3.75-6.626 5t-7.187 1Q384.782 146 378.594 146q-3.5 0-6.375-2.313-2.875-2.312-4.625-6.312-1.687-4-1.687-8.938 0-4 2.625-8.875 2.687-4.874 6.875-9.062 4.25-4.25 9.062-6.813 4.813-2.624 8.938-2.624 2.937 0 4.625.937 1.687.875 1.687 2.5 0 1.25-1.437 2.875 2.375.5 3.25 1.688.875 1.124.875 4.187 0 3-1.438 7.563-1.375 4.562-3.812 8.562l1.125 1.125h.937q1.063 0 2.063-.5 1.062-.563 1.875-1.125.812-.625 3.562-2.688zm-12.876-16.438q-5.187 3.125-8.875 5.688-3.687 2.5-6.25 5.124-2.562 2.563-3.437 5.188-1.563 7-1.563 7.563 0 4.125 5.75 4.125 2.688 0 9-4.625-1.062-2.938-1.062-5.625 0-3.938 1.625-8 1.625-4.126 4.812-9.438z"/><path d="M436 122.063q-9.062 12-13.812 17.062-4.688 5.063-7.688 5.063-2.375 0-4.375-1.938-2-2-3.125-5.313-1.062-3.375-1.062-7.187 0-2.5.437-4.5.5-2 1.813-4.375 1.312-2.438 3.437-5.25 2.188-2.813 5.313-6.375 1.875-2.188 3.125-3.688 1.312-1.5 2.5-2 1.25-.562 4-.562 2 0 3.812.563 1.813.5 1.813 1.062 0 1.125-1.875 4.063-1.813 2.937-5.938 7.187-4.062 4.188-9.437 8.25-1.188 3.688-1.188 5.625 0 2.688 2.063 2.688.75 0 2.5-1.25 1.75-1.313 5.875-4.938 4.187-3.688 7.5-6.5 2.437-2.125 5.625-6.313 3.25-4.25 5.25-6.374 4.625-4.876 6.312-6.313 1.688-1.5 3.25-1.5 1.5 0 2 .938.563.937.563 3.812 0 1.313-.25 2.125-.25.813-1.063 2.125-.75 1.25-3.125 4.688-2.375 3.437-5.625 8.124-1.75 2.5-3.062 5.5-1.313 2.938-1.313 4.438 0 3.25 2.563 3.25 2.125 0 4.937-1.75 2.813-1.75 8.625-6.313v4.188q-7.312 6.75-10.812 9.813-3.5 3.062-6.063 4.625-2.562 1.562-4.875 1.562-5.25 0-5.25-6.25 0-2.375 1.563-6.375 1.562-4.063 5.062-11.688z"/><path d="M455.188 131.125v-4.063q3.375-4 5.125-6.812-2-.688-2.938-1.688-.875-1-.875-3 0-2.25 1.875-5.687 1.875-3.438 4.625-6.438 2.75-3 5-3.874.875-.438 1.688-.438 1.25 0 1.25 1.188 0 1.062-1.938 4.312 12.875-2 16.25-2 1.313 0 1.813.25 1.062.563 1.75 2.625.687 2.063.687 4.125 0 1.313-1.187 2.875-1.125 1.5-3.938 4.438-3.312 3.562-5.562 7.75-2.25 4.187-2.25 6.312 0 2.938 3.625 2.938 3.812 0 13.25-7.75v4.187q-5.188 5.438-8.563 8.563-3.375 3.125-6.25 5-2.875 1.812-5.125 1.812-2.625 0-4.375-2.375-1.75-2.438-1.75-7 0-2.688 1.375-6.125 1.375-3.438 4-7.438 2.688-4.062 6-8.062-1.75.375-3.937.813-2.188.374-4.625.812-2.438.438-3.75.688-3.875 7.75-11.25 14.062zM636.15 126.063v4.312q-5.938 5.563-10.126 9-4.125 3.375-8.25 6.125-4.125 2.688-6.875 3.813-2.687 1.187-4.625 1.187-4.625 0-7.562-3.438-2.938-3.437-2.938-8.875 0-6.25 2.5-12.375 2.563-6.124 7.25-12.624 4.688-6.563 11.75-14.688 5.25-6 5.25-6.75 0-.438-.312-.75-.313-.313-.688-.313-1.187 0-7.312 5.25t-15.75 15.438q-9.563 10.188-20.688 24.25-.625.75-4 5.125-3.312 4.313-4.687 5.625-1.375 1.313-2.375 1.313-1.75 0-3.063-3.5-1.25-3.563-1.25-7.563 0-2.438 1.563-5.25 1.625-2.813 6.937-10.063Q576.274 114 579.774 109q3.5-5 7.688-12.125 2.937-4.938 4.312-7.875 1.438-2.938 1.438-5.188 0-1.937-1.125-1.937-2.375 0-8.938 6.375-6.562 6.313-16.25 18.813-9.625 12.5-20.125 28.937-3.437 5.625-4.875 7.563-1.437 1.937-3.187 1.937-2.188 0-4.125-4.625-1.875-4.688-1.875-7.563 0-.937.75-2.062 8.25-11 13.562-18.688 5.313-7.687 9.438-14.562 4.125-6.938 6-11.375 1.875-4.5 1.875-7.063 0-2.687-2.438-2.687-2 0-6.812 2.563-4.813 2.562-12.188 7-7.312 4.437-11.75 6.812-4.437 2.313-6.625 2.313-2.062 0-2.062-2.313 0-1.313.875-6 .875-4.75 1.812-6.688 1.313-2.5 6.688-6.624 5.437-4.126 6-4.126.5 0 .5.438 0 .25-.5.75-2.563 2.063-3.813 3.375-1.25 1.313-1.562 2.875 11.437-6.875 20.437-10.438 9.063-3.624 12.563-3.624 1.75 0 3.312 2.374 1.563 2.313 2.625 5.438 1.125 3.063 1.125 3.938 0 3.187-1.625 7.562-1.625 4.313-4.437 10.063l-6.875 14.374q3.25-4.187 6.187-7.75 2.938-3.562 5.813-6.937 2.937-3.375 5.937-6.813 4.063-4.687 9.125-8.937 5.063-4.313 9.438-7 4.437-2.75 6-2.75 2.187 0 3.875 2.438 1.75 2.374 1.75 5.124 0 1.813-2.375 6.938t-6.938 13.125q-4.562 8-12.062 20.625 7.125-7.563 14.812-15.563 7.688-8 11.438-11.687 3.75-3.688 6.25-5.625 3.437-2.625 6.875-5.625l5.5-4.813q2-1.75 3.562-2.687 1.563-.938 2.875-.938 1.625 0 4.063 3.75 2.5 3.75 2.5 4.813 0 1.313-1.5 3.125-1.438 1.813-6.063 6.75-8.5 9.125-14.75 18.438-6.25 9.25-9.5 16.937-3.187 7.625-3.187 12.063 0 2.75 1 4 1.062 1.25 3.25 1.25 2 0 3.687-.75 1.75-.75 3.813-2.125 2.125-1.375 4-2.625 2.625-1.563 5.125-3.313 2.562-1.813 3.937-2.813 1.438-1.062 2.125-1.5z"/><path d="M676.024 126.188v4.187q-4.125 3.75-6.625 5t-7.187 1Q654.087 146 647.899 146q-3.5 0-6.375-2.313-2.875-2.312-4.625-6.312-1.687-4-1.687-8.938 0-4 2.625-8.875 2.687-4.874 6.875-9.062 4.25-4.25 9.062-6.813 4.813-2.624 8.938-2.624 2.937 0 4.625.937 1.687.875 1.687 2.5 0 1.25-1.437 2.875 2.375.5 3.25 1.688.875 1.124.875 4.187 0 3-1.438 7.563-1.375 4.562-3.812 8.562l1.125 1.125h.937q1.063 0 2.063-.5 1.062-.563 1.875-1.125.812-.625 3.562-2.688zM663.15 109.75q-5.187 3.125-8.875 5.688-3.687 2.5-6.25 5.124-2.562 2.563-3.437 5.188-1.563 7-1.563 7.563 0 4.125 5.75 4.125 2.688 0 9-4.625-1.062-2.938-1.062-5.625 0-3.938 1.625-8 1.625-4.126 4.812-9.438z"/><path d="M717.962 115q-11 12.25-11 17.063 0 2.687 2.187 2.687 1.813 0 4.688-1.875 2.937-1.938 9.125-6.813v4.313q-8.875 8.75-13.625 12.625t-7.75 3.875q-5.125 0-5.125-6.75 0-2 .625-3.938.625-1.937 1.687-4 1.125-2.125 3.375-6 2.25-3.937 5.188-8.874-3.563 1.812-8.938 7.187-3.5 3.375-5.937 6.438-2.438 3-5.25 6.75-2.75 3.687-4.063 5-1.25 1.25-2.562 1.25-2 0-3.688-4.188-1.687-4.188-1.687-9.75 0-3.438.75-5.375.812-1.938 3.125-5.5 4.312-6.625 7.437-9.688 3.125-3.124 6-3.124 2 0 3.188.687 1.25.688 1.25 2.125 0 .625-.375 1.313-.375.687-.875 1.25-.438.562-1.938 2.187-9.875 10.938-9.875 14.188 0 1.812 1.188 1.812.75 0 2.875-2.375 2.187-2.438 5.562-6.313 3.438-3.937 8.063-8.187 4.687-4.25 10.625-8.188 3.312-2.312 5.5-2.312 1 0 1.937 2.75 1 2.75 1 5.563 0 1.374-2.687 4.187z"/><path d="M732.587 128.563v1.562q0 3.688 1.812 5.75 1.813 2.063 4.75 2.063 3.063 0 6.313-1.438 3.312-1.438 6.562-3.813 3.25-2.375 7.938-6.375v3.813q-7.063 8.5-13.25 13.063-6.188 4.5-12.563 4.5-5.562 0-8.812-4.313-3.25-4.313-3.25-11.813 0-6.562 3.062-11.875 3.063-5.374 10-11.312 4.75-4.063 9.438-6.125 4.687-2.063 8.375-2.063 2.937 0 4.625 1.376 1.75 1.312 1.75 4 0 3.937-2.938 7.874-2.937 3.876-9 7.75-6 3.813-14.812 7.376zm.625-4.063q5.625-2.188 9.625-5.438 4-3.25 5.875-6.187 1.937-3 1.937-4.375 0-1.438-1.312-1.438-1.125 0-3.688 1.438-2.5 1.438-5.125 3.75-2.562 2.313-4.625 5.438-2.062 3.124-2.687 6.812z"/><path d="M788.9 128.75l-11.126 9.438q-7.937 6.937-10.625 6.937-2.437 0-5.125-5.563-2.687-5.625-2.687-9.812 0-3.563 1.062-6 1.125-2.5 3.813-6.438 3.812-5.312 7.312-9 3.5-3.687 6.188-5.687 2.687-2.063 3.75-2.063 1.687 0 3.25 1.75 1.625 1.75 1.625 3.626 0 1.187-1.75 3.812-1.688 2.625-5.438 6.688-3.687 4-10.312 9.624l-1.188 3.438q-.5 1-.5 1.75 0 1.688 1.688 1.688 1.75 0 8.187-4.438 6.5-4.438 14.063-11.938 2.937-2.937 4.875-5.187 1.937-2.25 3.5-4.188 1.562-2 2.562-3 1.063-1 1.875-1.062 1.563-.188 2.438 1.313.875 1.5.875 4.437 0 1.688-1.5 4.25-1.5 2.5-5.625 8.625-4.125 6.063-8.25 12.625-4.063 6.5-8.313 14.688.188-.188 3.813-3.75 3.687-3.563 7.75-7.438 4.062-3.875 6.687-6.188 2.625-2.375 6.563-5.5v4.188q-8.438 9.063-15.313 17.188-6.812 8.125-10.562 13-3.688 4.875-4.313 5.687-1.687 2.188-3.062 4.063-1.313 1.937-2.25 2.937-.875 1.063-1.438 1.063-1.312 0-2.375-2.625-1-2.563-1-4.563 0-1.813.688-3.188 4.5-10.125 20.187-35.187zM851.65 65.875q1.312-.375 2.312-.375 2.062 0 4.5 1.313 2.5 1.312 4.187 3.687-2.937 4.313-9.562 14.125-6.563 9.813-9.813 14.688-3.25 4.874-6.687 10.124-3.438 5.25-5.188 8.126 1.188.25 1.188 1.437 0 .75-1.5 2.563-1.438 1.812-2.625 1.812-1.375 0-3.5-2.5t-2.125-4.313q0-.874.937-3 1-2.124 3.438-6.374 2.437-4.313 5.437-9.5 3.063-5.188 7.438-12.75 8.562-14.688 11.562-19.063zM820.773 145.5q-1.875 0-3.687-1.625-1.813-1.688-1.813-4.688 0-3.937 2-8.875 2.063-4.937 4.25-4.937 1.375 0 2.75 1 1.438.938 2.438 2.688 1 1.75 1 3.875 0 3.437-2.313 8-2.312 4.562-4.625 4.562z"/></g><path fill-rule="evenodd" fill="#fff" d="M302.667 159.006h189v6h-189z"/></svg>